<svg width="639" height="324" viewBox="0 0 639 324" fill="none" xmlns="http://www.w3.org/2000/svg">
<path d="M629.5 323.3H9.20001C4.20001 323.3 0.200012 319.3 0.200012 314.3C0.200012 309.3 4.20001 305.3 9.20001 305.3H629.5C634.5 305.3 638.5 309.3 638.5 314.3C638.5 319.3 634.5 323.3 629.5 323.3Z" fill="#C9C9C9"/>
<path d="M125.9 230.3C116.3 230.3 108.6 222.5 108.6 213C108.6 203.5 116.4 195.7 125.9 195.7H223.9V230.4H125.9V230.3Z" fill="#CECECE"/>
<path d="M229.6 236.3H125.9C113 236.3 102.6 225.8 102.6 213C102.6 200.1 113.1 189.7 125.9 189.7H229.6V236.3V236.3Z" fill="white"/>
<path d="M119.5 207.6H223.9" stroke="#1F3969" stroke-width="4" stroke-miterlimit="10" stroke-linecap="round" stroke-linejoin="round"/>
<path d="M119.5 218.2H223.9" stroke="#1F3969" stroke-width="4" stroke-miterlimit="10" stroke-linecap="round" stroke-linejoin="round"/>
<path d="M125.9 230.3C116.3 230.3 108.6 222.5 108.6 213C108.6 203.5 116.4 195.7 125.9 195.7H223.9V230.4H125.9V230.3Z" stroke="#1F3969" stroke-width="4" stroke-miterlimit="10" stroke-linecap="round" stroke-linejoin="round"/>
<path d="M125.9 230.3C116.3 230.3 108.6 222.5 108.6 213C108.6 203.5 116.4 195.7 125.9 195.7H225.6L229.6 189.7H125.9C113 189.7 102.6 200.2 102.6 213C102.6 225.9 113.1 236.3 125.9 236.3H229.6L225.6 230.3H125.9Z" fill="#FF3E3E"/>
<path d="M125.9 230.3C116.3 230.3 108.6 222.5 108.6 213C108.6 203.5 116.4 195.7 125.9 195.7H225.6L229.6 189.7H125.9C113 189.7 102.6 200.2 102.6 213C102.6 225.9 113.1 236.3 125.9 236.3H229.6L225.6 230.3H125.9Z" stroke="#1F3969" stroke-width="4" stroke-miterlimit="10" stroke-linecap="round" stroke-linejoin="round"/>
<path opacity="0.28" d="M207.3 189.6H188.9V236.3H207.3V189.6Z" fill="#1F3969" stroke="#1F3969" stroke-width="4" stroke-miterlimit="10" stroke-linecap="round" stroke-linejoin="round"/>
<path d="M218.9 274.8H29C25.3 274.8 22.2 271.8 22.2 268V243C22.2 239.3 25.2 236.2 29 236.2H218.9C222.6 236.2 225.7 239.2 225.7 243V268C225.7 271.8 222.7 274.8 218.9 274.8Z" fill="#5F5AFF"/>
<path d="M218.9 274.8H29C25.3 274.8 22.2 271.8 22.2 268V243C22.2 239.3 25.2 236.2 29 236.2H218.9C222.6 236.2 225.7 239.2 225.7 243V268C225.7 271.8 222.7 274.8 218.9 274.8Z" stroke="#1F3969" stroke-width="4" stroke-miterlimit="10" stroke-linecap="round" stroke-linejoin="round"/>
<path opacity="0.28" d="M218.9 236.3H188.9V251.3C188.9 260.7 196.5 268.4 206 268.4H225.7C225.7 268.3 225.7 268.2 225.7 268.1V243.1C225.7 239.3 222.7 236.3 218.9 236.3Z" fill="#1F3969" stroke="#1F3969" stroke-width="4" stroke-miterlimit="10" stroke-linecap="round" stroke-linejoin="round"/>
<path d="M272.4 282.6H52.4C53.7 285.8 54.4 289.8 54.4 294C54.4 298.2 53.7 302.1 52.4 305.4H272.3C271 302.2 270.3 298.2 270.3 294C270.4 289.7 271.1 285.8 272.4 282.6Z" fill="#CECECE"/>
<path d="M278.4 276.5H46.5V282.5H278.4V276.5Z" fill="#50B56F"/>
<path d="M278.4 276.5H46.5V282.5H278.4V276.5Z" stroke="#1F3969" stroke-width="4" stroke-miterlimit="10" stroke-linecap="round" stroke-linejoin="round"/>
<path d="M278.4 305.3H46.5V311.3H278.4V305.3Z" fill="#F6F9FD"/>
<path d="M278.4 305.3H46.5V311.3H278.4V305.3Z" fill="#50B56F"/>
<path d="M278.4 305.3H46.5V311.3H278.4V305.3Z" stroke="#1F3969" stroke-width="4" stroke-miterlimit="10" stroke-linecap="round" stroke-linejoin="round"/>
<path d="M393.6 290L390.6 256.3H341.2L338.2 290C337.5 297.8 332.8 305.3 325.4 311.3V311.4H406.4V311.3C399 305.3 394.3 297.8 393.6 290Z" fill="#BFCFE2"/>
<path opacity="0.28" d="M341.2 256.3L339.4 276.5H392.4L390.6 256.3H341.2Z" fill="#1F3969" stroke="#1F3969" stroke-width="4" stroke-miterlimit="10" stroke-linecap="round" stroke-linejoin="round"/>
<path d="M393.6 290L390.6 256.3H341.2L338.2 290C337.5 297.8 332.8 305.3 325.4 311.3V311.4H406.4V311.3C399 305.3 394.3 297.8 393.6 290Z" stroke="#1F3969" stroke-width="4" stroke-miterlimit="10" stroke-linecap="round" stroke-linejoin="round"/>
<path d="M523.9 261.3H207.9C201.3 261.3 195.9 255.9 195.9 249.3V43.3C195.9 36.7 201.3 31.3 207.9 31.3H523.9C530.5 31.3 535.9 36.7 535.9 43.3V249.3C535.9 256 530.5 261.3 523.9 261.3Z" fill="white"/>
<path d="M523.9 261.3H207.9C201.3 261.3 195.9 255.9 195.9 249.3V43.3C195.9 36.7 201.3 31.3 207.9 31.3H523.9C530.5 31.3 535.9 36.7 535.9 43.3V249.3C535.9 256 530.5 261.3 523.9 261.3Z" fill="#BFCFE2"/>
<path d="M523.9 261.3H207.9C201.3 261.3 195.9 255.9 195.9 249.3V43.3C195.9 36.7 201.3 31.3 207.9 31.3H523.9C530.5 31.3 535.9 36.7 535.9 43.3V249.3C535.9 256 530.5 261.3 523.9 261.3Z" stroke="#1F3969" stroke-width="4" stroke-miterlimit="10" stroke-linecap="round" stroke-linejoin="round"/>
<path d="M518.956 222.928V48.3281L212.956 48.3281L212.956 222.928L518.956 222.928Z" fill="#F6F9FD"/>
<path opacity="0.28" d="M223.9 31.3V169.9C223.9 174.3 227.5 177.9 231.9 177.9H421C425.4 177.9 429 174.3 429 169.9V31.3H223.9Z" fill="#1F3969" stroke="#1F3969" stroke-width="4" stroke-miterlimit="10" stroke-linecap="round" stroke-linejoin="round"/>
<path d="M518.956 222.928V48.3281L212.956 48.3281L212.956 222.928L518.956 222.928Z" stroke="#1F3969" stroke-width="4" stroke-miterlimit="10" stroke-linecap="round" stroke-linejoin="round"/>
<path d="M352.5 242H379.4" stroke="#1F3969" stroke-width="4" stroke-miterlimit="10" stroke-linecap="round" stroke-linejoin="round"/>
<path d="M430 166.9H240.9C236.5 166.9 232.9 163.3 232.9 158.9V10.7C232.9 6.30001 236.5 2.70001 240.9 2.70001H430C434.4 2.70001 438 6.30001 438 10.7V159C438 163.4 434.4 166.9 430 166.9Z" fill="#2D425E"/>
<path d="M438 22.1H232.9V10.6C232.9 6.20001 236.5 2.60001 240.9 2.60001H430C434.4 2.60001 438 6.20001 438 10.6V22.1Z" stroke="#1F3969" stroke-width="4" stroke-miterlimit="10" stroke-linecap="round" stroke-linejoin="round"/>
<path d="M438 25.9H232.9V10.6C232.9 6.20001 236.5 2.60001 240.9 2.60001H430C434.4 2.60001 438 6.20001 438 10.6V25.9Z" fill="#D0DDF0"/>
<path d="M438 25.9H232.9V10.6C232.9 6.20001 236.5 2.60001 240.9 2.60001H430C434.4 2.60001 438 6.20001 438 10.6V25.9Z" stroke="#1F3969" stroke-width="4" stroke-miterlimit="10" stroke-linecap="round" stroke-linejoin="round"/>
<path d="M438 25.9H232.9V10.6C232.9 6.20001 236.5 2.60001 240.9 2.60001H430C434.4 2.60001 438 6.20001 438 10.6V25.9Z" stroke="#1F3969" stroke-width="4" stroke-miterlimit="10" stroke-linecap="round" stroke-linejoin="round"/>
<path d="M430 166.9H240.9C236.5 166.9 232.9 163.3 232.9 158.9V10.7C232.9 6.30001 236.5 2.70001 240.9 2.70001H430C434.4 2.70001 438 6.30001 438 10.7V159C438 163.4 434.4 166.9 430 166.9Z" stroke="#1F3969" stroke-width="4" stroke-miterlimit="10" stroke-linecap="round" stroke-linejoin="round"/>
<path opacity="0.28" d="M528.7 202.3H412.7C408.3 202.3 404.7 198.7 404.7 194.3V71.4C404.7 67 408.3 63.4 412.7 63.4H528.7C533.1 63.4 536.7 67 536.7 71.4V194.3C536.7 198.8 533.1 202.3 528.7 202.3Z" fill="#1F3969" stroke="#1F3969" stroke-width="4" stroke-miterlimit="10" stroke-linecap="round" stroke-linejoin="round"/>
<path d="M536.7 195.3H420.7C416.3 195.3 412.7 191.7 412.7 187.3V64.4C412.7 60 416.3 56.4 420.7 56.4H536.7C541.1 56.4 544.7 60 544.7 64.4V187.3C544.7 191.8 541.1 195.3 536.7 195.3Z" fill="#2AA1FF"/>
<path d="M536.7 195.3H420.7C416.3 195.3 412.7 191.7 412.7 187.3V64.4C412.7 60 416.3 56.4 420.7 56.4H536.7C541.1 56.4 544.7 60 544.7 64.4V187.3C544.7 191.8 541.1 195.3 536.7 195.3Z" stroke="#1F3969" stroke-width="4" stroke-miterlimit="10" stroke-linecap="round" stroke-linejoin="round"/>
<path opacity="0.34" d="M519.4 94.5H437.8C434.9 94.5 432.6 92.2 432.6 89.3V81.5C432.6 78.6 434.9 76.3 437.8 76.3H519.4C522.3 76.3 524.6 78.6 524.6 81.5V89.3C524.6 92.2 522.3 94.5 519.4 94.5Z" stroke="white" stroke-width="2" stroke-miterlimit="10" stroke-linecap="round" stroke-linejoin="round"/>
<g opacity="0.34">
<path opacity="0.34" d="M483.6 123.8H438C435.1 123.8 432.8 121.5 432.8 118.6V110.8C432.8 107.9 435.1 105.6 438 105.6H483.6C486.5 105.6 488.8 107.9 488.8 110.8V118.6C488.7 121.5 486.4 123.8 483.6 123.8Z" stroke="white" stroke-width="2" stroke-miterlimit="10" stroke-linecap="round" stroke-linejoin="round"/>
<path opacity="0.34" d="M519.5 123.8H501.8C498.9 123.8 496.6 121.5 496.6 118.6V110.8C496.6 107.9 498.9 105.6 501.8 105.6H519.5C522.4 105.6 524.7 107.9 524.7 110.8V118.6C524.7 121.5 522.4 123.8 519.5 123.8Z" stroke="white" stroke-width="2" stroke-miterlimit="10" stroke-linecap="round" stroke-linejoin="round"/>
</g>
<path d="M432.7 154.2H524.6" stroke="white" stroke-width="2" stroke-miterlimit="10" stroke-linecap="round" stroke-linejoin="round"/>
<path d="M432.7 165H524.6" stroke="white" stroke-width="2" stroke-miterlimit="10" stroke-linecap="round" stroke-linejoin="round"/>
<path d="M432.7 175.8H488.7" stroke="white" stroke-width="2" stroke-miterlimit="10" stroke-linecap="round" stroke-linejoin="round"/>
<path d="M253 18.3C255.209 18.3 257 16.5091 257 14.3C257 12.0908 255.209 10.3 253 10.3C250.791 10.3 249 12.0908 249 14.3C249 16.5091 250.791 18.3 253 18.3Z" fill="#1F3969"/>
<path d="M266.9 18.3C269.109 18.3 270.9 16.5091 270.9 14.3C270.9 12.0908 269.109 10.3 266.9 10.3C264.691 10.3 262.9 12.0908 262.9 14.3C262.9 16.5091 264.691 18.3 266.9 18.3Z" fill="#1F3969"/>
<path d="M280.8 18.3C283.009 18.3 284.8 16.5091 284.8 14.3C284.8 12.0908 283.009 10.3 280.8 10.3C278.591 10.3 276.8 12.0908 276.8 14.3C276.8 16.5091 278.591 18.3 280.8 18.3Z" fill="#1F3969"/>
<path d="M350.7 44.4H363.7" stroke="white" stroke-width="4" stroke-miterlimit="10" stroke-linecap="round" stroke-linejoin="round"/>
<path d="M284.8 44.4H341.1" stroke="#7BFFA0" stroke-width="4" stroke-miterlimit="10" stroke-linecap="round" stroke-linejoin="round"/>
<path d="M257 44.4H276.8" stroke="#9169FF" stroke-width="4" stroke-miterlimit="10" stroke-linecap="round" stroke-linejoin="round"/>
<path d="M282.8 142.9H325.8" stroke="#9169FF" stroke-width="4" stroke-miterlimit="10" stroke-linecap="round" stroke-linejoin="round"/>
<path d="M257 142.9H270.9" stroke="#7BFFA0" stroke-width="4" stroke-miterlimit="10" stroke-linecap="round" stroke-linejoin="round"/>
<path d="M341.1 56.7H349.2" stroke="white" stroke-width="4" stroke-miterlimit="10" stroke-linecap="round" stroke-linejoin="round"/>
<path d="M304.3 56.7H331.5" stroke="#9169FF" stroke-width="4" stroke-miterlimit="10" stroke-linecap="round" stroke-linejoin="round"/>
<path d="M266.9 56.7H294.6" stroke="#FFC47D" stroke-width="4" stroke-miterlimit="10" stroke-linecap="round" stroke-linejoin="round"/>
<path d="M309.8 69H333.7" stroke="white" stroke-width="4" stroke-miterlimit="10" stroke-linecap="round" stroke-linejoin="round"/>
<path d="M279.8 69H302.3" stroke="#FF5757" stroke-width="4" stroke-miterlimit="10" stroke-linecap="round" stroke-linejoin="round"/>
<path d="M313 81.3H317.9" stroke="white" stroke-width="4" stroke-miterlimit="10" stroke-linecap="round" stroke-linejoin="round"/>
<path d="M293.2 81.3H304.3" stroke="#9169FF" stroke-width="4" stroke-miterlimit="10" stroke-linecap="round" stroke-linejoin="round"/>
<path d="M266.9 81.3H284.8" stroke="#7BFFA0" stroke-width="4" stroke-miterlimit="10" stroke-linecap="round" stroke-linejoin="round"/>
<path d="M305.3 93.7H337.2" stroke="#FFC47D" stroke-width="4" stroke-miterlimit="10" stroke-linecap="round" stroke-linejoin="round"/>
<path d="M266.9 93.7H295.5" stroke="#FF5757" stroke-width="4" stroke-miterlimit="10" stroke-linecap="round" stroke-linejoin="round"/>
<path d="M342.2 106H359.5" stroke="#9169FF" stroke-width="4" stroke-miterlimit="10" stroke-linecap="round" stroke-linejoin="round"/>
<path d="M305.3 106H333" stroke="#FF5757" stroke-width="4" stroke-miterlimit="10" stroke-linecap="round" stroke-linejoin="round"/>
<path d="M279.8 106H295.5" stroke="#7BFFA0" stroke-width="4" stroke-miterlimit="10" stroke-linecap="round" stroke-linejoin="round"/>
<path d="M317.9 118.3H333" stroke="white" stroke-width="4" stroke-miterlimit="10" stroke-linecap="round" stroke-linejoin="round"/>
<path d="M279.8 118.3H307.5" stroke="#9169FF" stroke-width="4" stroke-miterlimit="10" stroke-linecap="round" stroke-linejoin="round"/>
<path d="M357.2 130.6H374.5" stroke="white" stroke-width="4" stroke-miterlimit="10" stroke-linecap="round" stroke-linejoin="round"/>
<path d="M304.3 130.6H347.8" stroke="#FFC47D" stroke-width="4" stroke-miterlimit="10" stroke-linecap="round" stroke-linejoin="round"/>
<path d="M266.9 130.6H294.6" stroke="white" stroke-width="4" stroke-miterlimit="10" stroke-linecap="round" stroke-linejoin="round"/>
<path d="M54.9 289.5H270.4" stroke="#1F3969" stroke-width="4" stroke-miterlimit="10" stroke-linecap="round" stroke-linejoin="round"/>
<path d="M54.9 297.5H270.4" stroke="#1F3969" stroke-width="4" stroke-miterlimit="10" stroke-linecap="round" stroke-linejoin="round"/>
<path d="M272.4 282.6H52.4C53.7 285.8 54.4 289.8 54.4 294C54.4 298.2 53.7 302.1 52.4 305.4H272.3C271 302.2 270.3 298.2 270.3 294C270.4 289.7 271.1 285.8 272.4 282.6Z" stroke="#1F3969" stroke-width="4" stroke-miterlimit="10" stroke-linecap="round" stroke-linejoin="round"/>
<path d="M568.349 201.071L558.616 202.214L567.081 274.32L576.814 273.177L568.349 201.071Z" fill="#FFA364"/>
<path d="M568.362 201.148L558.629 202.29L559.492 209.64L569.225 208.497L568.362 201.148Z" fill="#2AA1FF"/>
<path d="M568.362 201.148L558.629 202.29L559.492 209.64L569.225 208.497L568.362 201.148Z" stroke="#1F3969" stroke-width="4" stroke-miterlimit="10" stroke-linecap="round" stroke-linejoin="round"/>
<path d="M568.349 201.071L558.616 202.214L567.081 274.32L576.814 273.177L568.349 201.071Z" stroke="#1F3969" stroke-width="4" stroke-miterlimit="10" stroke-linecap="round" stroke-linejoin="round"/>
<path d="M595.039 215.841L585.297 214.781L577.449 286.953L587.191 288.013L595.039 215.841Z" fill="#FF5252"/>
<path d="M595.039 215.841L585.297 214.781L577.449 286.953L587.191 288.013L595.039 215.841Z" stroke="#1F3969" stroke-width="4" stroke-miterlimit="10" stroke-linecap="round" stroke-linejoin="round"/>
<path d="M595.111 215.858L585.369 214.799L584.569 222.155L594.311 223.214L595.111 215.858Z" fill="#2D425E"/>
<path d="M595.111 215.858L585.369 214.799L584.569 222.155L594.311 223.214L595.111 215.858Z" stroke="#1F3969" stroke-width="4" stroke-miterlimit="10" stroke-linecap="round" stroke-linejoin="round"/>
<path d="M601.1 311.6H561.8L555.4 251.4H607.5L601.1 311.6Z" fill="#6567C3"/>
<path d="M555.4 251.4L555.5 252.5H595.2L588.9 311.6H601.1L607.5 251.4H555.4Z" fill="#6567C3"/>
<path d="M601.1 311.6H561.8L555.4 251.4H607.5L601.1 311.6Z" stroke="#1F3969" stroke-width="4" stroke-miterlimit="10" stroke-linecap="round" stroke-linejoin="round"/>
<path d="M65.9336 259.321C65.5 259.942 64.8936 260.408 64.1143 260.719C63.3408 261.023 62.4385 261.176 61.4072 261.176C60.3643 261.176 59.4385 260.933 58.6299 260.446C57.8213 259.954 57.1943 259.257 56.749 258.354C56.3096 257.452 56.084 256.406 56.0723 255.217V254.101C56.0723 252.173 56.5205 250.679 57.417 249.618C58.3193 248.558 59.585 248.027 61.2139 248.027C62.5498 248.027 63.625 248.37 64.4395 249.056C65.2539 249.735 65.752 250.702 65.9336 251.956H64.2461C63.9297 250.263 62.9219 249.416 61.2227 249.416C60.0918 249.416 59.2334 249.814 58.6475 250.611C58.0674 251.402 57.7744 252.551 57.7686 254.057V255.103C57.7686 256.538 58.0967 257.681 58.7529 258.53C59.4092 259.374 60.2969 259.796 61.416 259.796C62.0488 259.796 62.6025 259.726 63.0771 259.585C63.5518 259.444 63.9443 259.207 64.2549 258.873V255.999H61.293V254.628H65.9336V259.321ZM74.3711 261C74.2773 260.812 74.2012 260.479 74.1426 259.998C73.3867 260.783 72.4844 261.176 71.4355 261.176C70.498 261.176 69.7275 260.912 69.124 260.385C68.5264 259.852 68.2275 259.178 68.2275 258.363C68.2275 257.373 68.6025 256.605 69.3525 256.061C70.1084 255.51 71.1689 255.234 72.5342 255.234H74.1162V254.487C74.1162 253.919 73.9463 253.468 73.6064 253.134C73.2666 252.794 72.7656 252.624 72.1035 252.624C71.5234 252.624 71.0371 252.771 70.6445 253.063C70.252 253.356 70.0557 253.711 70.0557 254.127H68.4209C68.4209 253.652 68.5879 253.195 68.9219 252.756C69.2617 252.311 69.7188 251.959 70.293 251.701C70.873 251.443 71.5088 251.314 72.2002 251.314C73.2959 251.314 74.1543 251.59 74.7754 252.141C75.3965 252.686 75.7188 253.438 75.7422 254.399V258.776C75.7422 259.649 75.8535 260.344 76.0762 260.859V261H74.3711ZM71.6729 259.761C72.1826 259.761 72.666 259.629 73.123 259.365C73.5801 259.102 73.9111 258.759 74.1162 258.337V256.386H72.8418C70.8496 256.386 69.8535 256.969 69.8535 258.135C69.8535 258.645 70.0234 259.043 70.3633 259.33C70.7031 259.617 71.1396 259.761 71.6729 259.761ZM80.4971 249.188V251.49H82.2725V252.747H80.4971V258.645C80.4971 259.025 80.5762 259.312 80.7344 259.506C80.8926 259.693 81.1621 259.787 81.543 259.787C81.7305 259.787 81.9883 259.752 82.3164 259.682V261C81.8887 261.117 81.4727 261.176 81.0684 261.176C80.3418 261.176 79.7939 260.956 79.4248 260.517C79.0557 260.077 78.8711 259.453 78.8711 258.645V252.747H77.1396V251.49H78.8711V249.188H80.4971ZM89.7168 258.478C89.7168 258.038 89.5498 257.698 89.2158 257.458C88.8877 257.212 88.3105 257.001 87.4844 256.825C86.6641 256.649 86.0107 256.438 85.5244 256.192C85.0439 255.946 84.6865 255.653 84.4521 255.313C84.2236 254.974 84.1094 254.569 84.1094 254.101C84.1094 253.321 84.4375 252.662 85.0938 252.123C85.7559 251.584 86.5996 251.314 87.625 251.314C88.7031 251.314 89.5762 251.593 90.2441 252.149C90.918 252.706 91.2549 253.418 91.2549 254.285H89.6201C89.6201 253.84 89.4297 253.456 89.0488 253.134C88.6738 252.812 88.1992 252.65 87.625 252.65C87.0332 252.65 86.5703 252.779 86.2363 253.037C85.9023 253.295 85.7354 253.632 85.7354 254.048C85.7354 254.44 85.8906 254.736 86.2012 254.936C86.5117 255.135 87.0713 255.325 87.8799 255.507C88.6943 255.688 89.3535 255.905 89.8574 256.157C90.3613 256.409 90.7334 256.714 90.9736 257.071C91.2197 257.423 91.3428 257.854 91.3428 258.363C91.3428 259.213 91.0029 259.896 90.3232 260.411C89.6436 260.921 88.7617 261.176 87.6777 261.176C86.916 261.176 86.2422 261.041 85.6562 260.771C85.0703 260.502 84.6104 260.127 84.2764 259.646C83.9482 259.16 83.7842 258.636 83.7842 258.073H85.4102C85.4395 258.618 85.6562 259.052 86.0605 259.374C86.4707 259.69 87.0098 259.849 87.6777 259.849C88.293 259.849 88.7852 259.726 89.1543 259.479C89.5293 259.228 89.7168 258.894 89.7168 258.478ZM101.512 256.351C101.512 257.804 101.178 258.973 100.51 259.857C99.8418 260.736 98.9453 261.176 97.8203 261.176C96.6191 261.176 95.6904 260.751 95.0342 259.901L94.9551 261H93.4609V247.5H95.0869V252.536C95.7432 251.722 96.6484 251.314 97.8027 251.314C98.957 251.314 99.8623 251.751 100.519 252.624C101.181 253.497 101.512 254.692 101.512 256.21V256.351ZM99.8857 256.166C99.8857 255.059 99.6719 254.203 99.2441 253.6C98.8164 252.996 98.2012 252.694 97.3984 252.694C96.3262 252.694 95.5557 253.192 95.0869 254.188V258.302C95.585 259.298 96.3613 259.796 97.416 259.796C98.1953 259.796 98.8018 259.494 99.2354 258.891C99.6689 258.287 99.8857 257.379 99.8857 256.166ZM106.574 258.618L108.789 251.49H110.529L106.706 262.468C106.114 264.05 105.174 264.841 103.885 264.841L103.577 264.814L102.971 264.7V263.382L103.41 263.417C103.961 263.417 104.389 263.306 104.693 263.083C105.004 262.86 105.259 262.453 105.458 261.861L105.818 260.895L102.426 251.49H104.201L106.574 258.618ZM116.11 257.563C116.11 256.948 116.28 256.383 116.62 255.867C116.966 255.352 117.622 254.751 118.589 254.065C118.021 253.374 117.64 252.817 117.446 252.396C117.253 251.974 117.156 251.555 117.156 251.139C117.156 250.166 117.443 249.404 118.018 248.854C118.592 248.303 119.371 248.027 120.355 248.027C121.234 248.027 121.961 248.285 122.535 248.801C123.109 249.311 123.396 249.955 123.396 250.734C123.396 251.25 123.265 251.728 123.001 252.167C122.743 252.601 122.289 253.058 121.639 253.538L120.698 254.232L123.546 257.634C123.944 256.872 124.144 256.025 124.144 255.094H125.611C125.611 256.588 125.251 257.827 124.53 258.812L126.358 261H124.407L123.555 259.989C123.121 260.376 122.611 260.672 122.025 260.877C121.445 261.076 120.854 261.176 120.25 261.176C119.002 261.176 118 260.845 117.244 260.183C116.488 259.521 116.11 258.647 116.11 257.563ZM120.25 259.849C121.111 259.849 121.899 259.521 122.614 258.864L119.494 255.129L119.204 255.34C118.226 256.061 117.736 256.802 117.736 257.563C117.736 258.255 117.959 258.809 118.404 259.225C118.855 259.641 119.471 259.849 120.25 259.849ZM118.782 251.086C118.782 251.648 119.128 252.352 119.819 253.195L120.856 252.466C121.255 252.185 121.527 251.918 121.674 251.666C121.82 251.408 121.894 251.098 121.894 250.734C121.894 250.342 121.747 250.017 121.454 249.759C121.161 249.495 120.792 249.363 120.347 249.363C119.866 249.363 119.485 249.527 119.204 249.855C118.923 250.178 118.782 250.588 118.782 251.086ZM137.063 255.823H134.058V261H132.361V248.203H136.598C138.039 248.203 139.146 248.531 139.92 249.188C140.699 249.844 141.089 250.799 141.089 252.053C141.089 252.85 140.872 253.544 140.438 254.136C140.011 254.728 139.413 255.17 138.646 255.463L141.651 260.895V261H139.841L137.063 255.823ZM134.058 254.443H136.65C137.488 254.443 138.153 254.227 138.646 253.793C139.144 253.359 139.393 252.779 139.393 252.053C139.393 251.262 139.155 250.655 138.681 250.233C138.212 249.812 137.532 249.598 136.642 249.592H134.058V254.443ZM147.153 261.176C145.864 261.176 144.815 260.754 144.007 259.91C143.198 259.061 142.794 257.927 142.794 256.509V256.21C142.794 255.267 142.973 254.426 143.33 253.688C143.693 252.943 144.197 252.363 144.842 251.947C145.492 251.525 146.195 251.314 146.951 251.314C148.188 251.314 149.148 251.722 149.834 252.536C150.52 253.351 150.862 254.517 150.862 256.034V256.711H144.42C144.443 257.648 144.716 258.407 145.237 258.987C145.765 259.562 146.433 259.849 147.241 259.849C147.815 259.849 148.302 259.731 148.7 259.497C149.099 259.263 149.447 258.952 149.746 258.565L150.739 259.339C149.942 260.563 148.747 261.176 147.153 261.176ZM146.951 252.65C146.295 252.65 145.744 252.891 145.299 253.371C144.854 253.846 144.578 254.514 144.473 255.375H149.236V255.252C149.189 254.426 148.967 253.787 148.568 253.336C148.17 252.879 147.631 252.65 146.951 252.65ZM158.623 261C158.529 260.812 158.453 260.479 158.395 259.998C157.639 260.783 156.736 261.176 155.688 261.176C154.75 261.176 153.979 260.912 153.376 260.385C152.778 259.852 152.479 259.178 152.479 258.363C152.479 257.373 152.854 256.605 153.604 256.061C154.36 255.51 155.421 255.234 156.786 255.234H158.368V254.487C158.368 253.919 158.198 253.468 157.858 253.134C157.519 252.794 157.018 252.624 156.355 252.624C155.775 252.624 155.289 252.771 154.896 253.063C154.504 253.356 154.308 253.711 154.308 254.127H152.673C152.673 253.652 152.84 253.195 153.174 252.756C153.514 252.311 153.971 251.959 154.545 251.701C155.125 251.443 155.761 251.314 156.452 251.314C157.548 251.314 158.406 251.59 159.027 252.141C159.648 252.686 159.971 253.438 159.994 254.399V258.776C159.994 259.649 160.105 260.344 160.328 260.859V261H158.623ZM155.925 259.761C156.435 259.761 156.918 259.629 157.375 259.365C157.832 259.102 158.163 258.759 158.368 258.337V256.386H157.094C155.102 256.386 154.105 256.969 154.105 258.135C154.105 258.645 154.275 259.043 154.615 259.33C154.955 259.617 155.392 259.761 155.925 259.761ZM166.357 259.849C166.938 259.849 167.444 259.673 167.878 259.321C168.312 258.97 168.552 258.53 168.599 258.003H170.137C170.107 258.548 169.92 259.066 169.574 259.559C169.229 260.051 168.766 260.443 168.186 260.736C167.611 261.029 167.002 261.176 166.357 261.176C165.062 261.176 164.031 260.745 163.264 259.884C162.502 259.017 162.121 257.833 162.121 256.333V256.061C162.121 255.135 162.291 254.312 162.631 253.591C162.971 252.87 163.457 252.311 164.09 251.912C164.729 251.514 165.481 251.314 166.349 251.314C167.415 251.314 168.3 251.634 169.003 252.272C169.712 252.911 170.09 253.74 170.137 254.76H168.599C168.552 254.145 168.317 253.641 167.896 253.248C167.479 252.85 166.964 252.65 166.349 252.65C165.522 252.65 164.881 252.949 164.424 253.547C163.973 254.139 163.747 254.997 163.747 256.122V256.43C163.747 257.525 163.973 258.369 164.424 258.961C164.875 259.553 165.52 259.849 166.357 259.849ZM174.171 249.188V251.49H175.946V252.747H174.171V258.645C174.171 259.025 174.25 259.312 174.408 259.506C174.566 259.693 174.836 259.787 175.217 259.787C175.404 259.787 175.662 259.752 175.99 259.682V261C175.562 261.117 175.146 261.176 174.742 261.176C174.016 261.176 173.468 260.956 173.099 260.517C172.729 260.077 172.545 259.453 172.545 258.645V252.747H170.813V251.49H172.545V249.188H174.171Z" fill="white"/>
</svg>
